<svg width="301" height="232" viewBox="0 0 301 232" fill="none" xmlns="http://www.w3.org/2000/svg">
<path d="M139.254 219.615C177.922 212.812 209.869 207.195 210.231 207.116L210.901 206.975L174.385 163.755C154.302 139.985 137.878 120.446 137.878 120.332C137.878 120.121 175.576 16.8096 175.788 16.441C175.858 16.3181 201.516 60.3989 237.979 123.29C272.114 182.17 300.259 230.718 300.524 231.175L301 232L184.97 231.982L68.9391 231.965L139.254 219.615ZM0 206.44C0 206.378 17.1995 176.658 38.227 140.398L76.454 74.4693L121.005 37.2613C145.508 16.8008 165.627 0.0269588 165.706 0.000626178C165.785 -0.0257065 165.468 0.781828 164.992 1.79125C164.515 2.80944 142.747 49.2778 116.613 105.05L69.1067 206.466L34.5578 206.51C15.5501 206.528 0 206.501 0 206.44Z" fill="white"/>
</svg>
